<svg xmlns="http://www.w3.org/2000/svg" width="48" height="32" viewBox="0 0 48 32" aria-hidden="true"><rect width="46.6" height="30.6" x="0.7" y="0.7" fill="#fff" rx="3.3"></rect><path fill="#ddd" d="M44 1.4A2.61 2.61 0 0 1 46.6 4v24a2.61 2.61 0 0 1-2.6 2.6H4A2.61 2.61 0 0 1 1.4 28V4A2.61 2.61 0 0 1 4 1.4zM44 0H4a4 4 0 0 0-4 4v24a4 4 0 0 0 4 4h40a4 4 0 0 0 4-4V4a4 4 0 0 0-4-4z"></path><path fill="#3f3f42" fill-rule="evenodd" d="M29.5 21.36a10.56 10.56 0 0 1-2.67.31c-2.27 0-3.76-1.18-3.76-3.35A3.21 3.21 0 0 1 26.5 15a3 3 0 0 1 1.24.2v-3h1.76zm-1.76-4.69a2.59 2.59 0 0 0-1.09-.2 1.66 1.66 0 0 0-1.78 1.8 1.8 1.8 0 0 0 2 1.91 3.36 3.36 0 0 0 .85-.08zM44 21.36a10.61 10.61 0 0 1-2.69.31c-2.25 0-3.76-1.18-3.76-3.35A3.21 3.21 0 0 1 41 15a3 3 0 0 1 1.24.2v-3H44zm-1.8-4.69a2.55 2.55 0 0 0-1.07-.2 1.67 1.67 0 0 0-1.8 1.8 1.81 1.81 0 0 0 2 1.91 3.25 3.25 0 0 0 .84-.08zm-9.92 0a2.79 2.79 0 0 1 1-.16 1.66 1.66 0 0 1 1.84 1.72 1.8 1.8 0 0 1-2 1.93v1.51h.1c2.28 0 3.65-1.26 3.65-3.49 0-2-1.46-3.23-3.6-3.23a8 8 0 0 0-2.87.54v8.63h1.78z"></path><path fill="#dc0032" d="M11.33 7.21a.73.73 0 0 1 .79 0c2.33 1.28 4.68 2.54 7 3.82-1.65 1-3.32 1.94-5 2.92-.34.16-.15.57-.16.86.25.11.5.49.8.31l4.7-2.73v8a.64.64 0 0 1-.4.59l-6 3.56c-.51.22-1 .85-1.6.58-2.36-1.38-4.72-2.78-7.07-4.17a.7.7 0 0 1-.39-.76v-7.83q3.54 2 7.06 4.1v6c0 .35.47.39.71.53.24-.17.71-.24.64-.63v-6.44a.3.3 0 0 0-.18-.32C9.64 14.05 7 12.56 4.39 11z"></path></svg>