<svg xmlns="http://www.w3.org/2000/svg" width="48" height="32" viewBox="0 0 48 32" aria-hidden="true"><rect width="46.6" height="30.6" x="0.7" y="0.7" fill="#fff" rx="3.3"></rect><path fill="#ddd" d="M44 1.4A2.61 2.61 0 0 1 46.6 4v24a2.61 2.61 0 0 1-2.6 2.6H4A2.61 2.61 0 0 1 1.4 28V4A2.61 2.61 0 0 1 4 1.4zM44 0H4a4 4 0 0 0-4 4v24a4 4 0 0 0 4 4h40a4 4 0 0 0 4-4V4a4 4 0 0 0-4-4z"></path><path fill="#f47920" d="m37.9 20.11-1.44-1.62L35 20.11h-3l3-3.3-3-3.3h3.09l1.46 1.61L38 13.51h3l-2.95 3.29 3 3.31zm-11.64 0V9.72H32V12h-3.3v1.48H32v2.23h-3.3v2H32v2.32z"></path><path fill="#472f92" d="M22.35 18.53a1.57 1.57 0 0 1-1.45-1.71c0-.93.48-1.83 1.45-1.83s1.41.9 1.41 1.83-.43 1.71-1.41 1.71m-8.65-2.76a1.34 1.34 0 0 1 1.3-1.09 1.26 1.26 0 0 1 1.31 1.09zm10.13-6V14a2.46 2.46 0 0 0-2-.83 3.35 3.35 0 0 0-3.23 2.52 3.48 3.48 0 0 0-3.6-2.58 3.64 3.64 0 0 0-3.3 1.76v-1.36H8.61V12H12V9.72H5.85v10.39h2.76v-4.37h2.75a4.46 4.46 0 0 0-.12 1A3.63 3.63 0 0 0 15 20.46a3.56 3.56 0 0 0 3.57-2.36h-2.36a1.18 1.18 0 0 1-1.2.59 1.42 1.42 0 0 1-1.38-1.41h4.81a3.51 3.51 0 0 0 3.39 3.21 2.39 2.39 0 0 0 2-1v.67h2.43V9.72zm2.43 15.59v-3.78h2.06v.28H26.6v1.37h1.65v.28H26.6V25h1.79v.28zm2.38 0 1-1.34-.95-1.27h.39l.77 1 .76-1H31L30 24l1 1.34h-.39l-.83-1.11-.78 1.08zm4.7-1.36c0-.55-.24-1.1-.85-1.1s-.8.48-.8 1.1.22 1.1.8 1.1.85-.54.85-1.1m-1.65 2.28h-.31V22.7h.3v.39a.93.93 0 0 1 .84-.45c.81 0 1.15.66 1.15 1.36s-.35 1.37-1.15 1.37a.89.89 0 0 1-.82-.44zm3.59-3.34c-.52 0-.7.44-.7.89v1.48h-.31V22.7h.31v.38a.79.79 0 0 1 .76-.44h.14V23h-.2m.6.87h1.55c0-.5-.24-.94-.73-.94s-.76.34-.82.94m0 .24c0 .59.28 1.07.85 1.07a.71.71 0 0 0 .72-.58h.3a1 1 0 0 1-1.06.82c-.8 0-1.15-.59-1.15-1.32s.37-1.41 1.19-1.41 1.05.73 1.05 1.42zM39 25.37c-.53 0-.94-.25-.94-.83h.32a.57.57 0 0 0 .64.59c.35 0 .63-.17.63-.52s-.33-.4-.66-.49-.86-.25-.86-.75.46-.73.9-.73.88.2.9.74h-.33a.5.5 0 0 0-.57-.49c-.26 0-.58.11-.58.45s.32.39.66.48.86.24.86.74-.45.81-1 .81m2.18 0c-.54 0-.94-.25-.94-.83h.31a.57.57 0 0 0 .64.59c.36 0 .63-.17.63-.52s-.32-.4-.66-.49-.86-.25-.86-.75.47-.73.91-.73.88.2.89.74h-.31a.51.51 0 0 0-.57-.49c-.27 0-.58.11-.58.45s.31.39.65.48.87.24.87.74-.45.81-1 .81"></path></svg>