<svg xmlns="http://www.w3.org/2000/svg" width="48" height="32" viewBox="0 0 48 32" aria-hidden="true"><rect width="45.142" height="29.209" x="1.429" y="1.395" fill="#fff" rx="2.655"></rect><path fill="#ddd" fill-rule="evenodd" d="M4.085.068h39.83A3.995 3.995 0 0 1 47.9 4.05v23.898a3.995 3.995 0 0 1-3.984 3.983H4.085A3.995 3.995 0 0 1 .1 27.95V4.051A3.995 3.995 0 0 1 4.085.068zM46.57 4.05a2.658 2.658 0 0 0-2.656-2.656H4.085a2.658 2.658 0 0 0-2.656 2.656v23.898a2.658 2.658 0 0 0 2.656 2.656h39.83a2.658 2.658 0 0 0 2.656-2.656z"></path><path fill="#fd6000" d="M6.978 10.835v-.7l2.921-3.652q.311-.39.591-.677H7.31v-.673h4.084v.673L8.192 9.762l-.347.4h3.641v.673zM14.91 10.326a2.598 2.598 0 0 1-.752.467 2.148 2.148 0 0 1-.77.136 1.508 1.508 0 0 1-1.046-.33 1.104 1.104 0 0 1-.366-.853 1.132 1.132 0 0 1 .136-.552 1.163 1.163 0 0 1 .362-.405 1.728 1.728 0 0 1 .506-.23 5.003 5.003 0 0 1 .622-.104 6.4 6.4 0 0 0 1.249-.241l.004-.183a.773.773 0 0 0-.199-.603 1.171 1.171 0 0 0-.797-.237 1.235 1.235 0 0 0-.731.175 1.053 1.053 0 0 0-.346.61l-.685-.093a1.68 1.68 0 0 1 .307-.708 1.328 1.328 0 0 1 .619-.416 2.725 2.725 0 0 1 .937-.148 2.482 2.482 0 0 1 .86.125 1.123 1.123 0 0 1 .486.315 1.086 1.086 0 0 1 .218.474 3.937 3.937 0 0 1 .035.646v.933a10.44 10.44 0 0 0 .043 1.237 1.598 1.598 0 0 0 .179.494h-.732a1.483 1.483 0 0 1-.14-.51zm-.06-1.564a5.135 5.135 0 0 1-1.143.265 2.646 2.646 0 0 0-.61.14.605.605 0 0 0-.277.23.588.588 0 0 0-.097.33.599.599 0 0 0 .21.467.92.92 0 0 0 .623.186 1.457 1.457 0 0 0 .72-.175 1.1 1.1 0 0 0 .462-.486 1.69 1.69 0 0 0 .113-.7zM16.648 12.419V6.705h.638v.536a1.551 1.551 0 0 1 .51-.47 1.386 1.386 0 0 1 .688-.16 1.633 1.633 0 0 1 .934.272 1.67 1.67 0 0 1 .61.77 2.791 2.791 0 0 1 .206 1.086 2.753 2.753 0 0 1-.23 1.143 1.724 1.724 0 0 1-1.57 1.047 1.33 1.33 0 0 1-.63-.148 1.437 1.437 0 0 1-.456-.373v2.01zm.634-3.626a1.797 1.797 0 0 0 .323 1.179.99.99 0 0 0 .782.381 1.008 1.008 0 0 0 .797-.393 1.874 1.874 0 0 0 .334-1.225 1.817 1.817 0 0 0-.326-1.182.972.972 0 0 0-.774-.393 1.012 1.012 0 0 0-.794.42 1.87 1.87 0 0 0-.342 1.213zM21.074 8.603l-.505.428v-.615l.505-.428V5.133h.697v2.264l.525-.447v.61l-.525.448v2.827h-.697zM25.552 10.326a2.596 2.596 0 0 1-.751.467 2.147 2.147 0 0 1-.77.136 1.508 1.508 0 0 1-1.047-.33 1.104 1.104 0 0 1-.365-.853 1.133 1.133 0 0 1 .136-.552 1.164 1.164 0 0 1 .362-.405 1.727 1.727 0 0 1 .505-.23 5 5 0 0 1 .623-.104 6.397 6.397 0 0 0 1.248-.241l.004-.183a.773.773 0 0 0-.198-.603 1.171 1.171 0 0 0-.798-.237 1.235 1.235 0 0 0-.73.175 1.053 1.053 0 0 0-.347.61l-.685-.093a1.68 1.68 0 0 1 .308-.708 1.328 1.328 0 0 1 .618-.416 2.726 2.726 0 0 1 .937-.148 2.481 2.481 0 0 1 .86.125 1.123 1.123 0 0 1 .486.315 1.088 1.088 0 0 1 .218.474 3.958 3.958 0 0 1 .035.646v.934a10.399 10.399 0 0 0 .043 1.236 1.595 1.595 0 0 0 .179.494h-.732a1.486 1.486 0 0 1-.14-.51zm-.059-1.564a5.135 5.135 0 0 1-1.143.265 2.647 2.647 0 0 0-.611.14.605.605 0 0 0-.276.23.589.589 0 0 0-.098.33.598.598 0 0 0 .21.467.92.92 0 0 0 .623.186 1.456 1.456 0 0 0 .72-.175 1.1 1.1 0 0 0 .462-.486 1.692 1.692 0 0 0 .113-.7zM29.986 9.322l.688.09a1.79 1.79 0 0 1-.58 1.116 1.68 1.68 0 0 1-1.139.4 1.783 1.783 0 0 1-1.365-.552 2.262 2.262 0 0 1-.514-1.59 2.876 2.876 0 0 1 .222-1.171 1.538 1.538 0 0 1 .673-.751 2.002 2.002 0 0 1 .988-.253 1.708 1.708 0 0 1 1.1.342 1.553 1.553 0 0 1 .55.965l-.682.105a1.125 1.125 0 0 0-.346-.626.883.883 0 0 0-.595-.21 1.084 1.084 0 0 0-.86.381 1.792 1.792 0 0 0-.33 1.198 1.862 1.862 0 0 0 .319 1.21 1.038 1.038 0 0 0 .832.377.981.981 0 0 0 .689-.253 1.255 1.255 0 0 0 .35-.778zm-1.572-3.13.518-1.09h.918l-.856 1.09zM7.344 20.385V14.67h.638v.537a1.55 1.55 0 0 1 .51-.471 1.386 1.386 0 0 1 .688-.16 1.632 1.632 0 0 1 .933.273 1.67 1.67 0 0 1 .61.77 2.79 2.79 0 0 1 .207 1.085 2.754 2.754 0 0 1-.23 1.144 1.723 1.723 0 0 1-1.57 1.046 1.33 1.33 0 0 1-.631-.148 1.436 1.436 0 0 1-.455-.373v2.01zm.634-3.626a1.797 1.797 0 0 0 .323 1.179.99.99 0 0 0 .781.381 1.008 1.008 0 0 0 .798-.393 1.873 1.873 0 0 0 .334-1.225 1.817 1.817 0 0 0-.326-1.182.972.972 0 0 0-.775-.393 1.012 1.012 0 0 0-.793.42 1.87 1.87 0 0 0-.342 1.213zM11.517 16.736a2.129 2.129 0 0 1 .638-1.7 1.922 1.922 0 0 1 1.3-.459 1.85 1.85 0 0 1 1.392.56 2.117 2.117 0 0 1 .54 1.54 2.727 2.727 0 0 1-.24 1.257 1.683 1.683 0 0 1-.697.708 2.017 2.017 0 0 1-.995.253 1.863 1.863 0 0 1-1.405-.556 2.227 2.227 0 0 1-.533-1.603zm.72 0a1.767 1.767 0 0 0 .346 1.19 1.155 1.155 0 0 0 1.739-.003 1.801 1.801 0 0 0 .346-1.21 1.693 1.693 0 0 0-.35-1.16 1.1 1.1 0 0 0-.863-.396 1.112 1.112 0 0 0-.872.393 1.752 1.752 0 0 0-.346 1.186zm.828-2.579.518-1.089h.918l-.856 1.09zM15.843 18.802v-.568l2.63-3.019q-.448.024-.79.024h-1.685v-.568h3.377v.463l-2.237 2.621-.432.479q.47-.035.883-.035h1.91v.603zm1.365-4.645.517-1.089h.918l-.855 1.09zM20.195 18.802V14.67h.63v.587a1.485 1.485 0 0 1 1.315-.68 1.69 1.69 0 0 1 .685.135 1.067 1.067 0 0 1 .47.35 1.35 1.35 0 0 1 .218.518 4 4 0 0 1 .04.68v2.54h-.7V16.29a1.868 1.868 0 0 0-.083-.638.66.66 0 0 0-.291-.338.9.9 0 0 0-.487-.129 1.142 1.142 0 0 0-.774.284 1.406 1.406 0 0 0-.323 1.078v2.256zM24.634 13.904V13.1h.7v.805zm0 4.898V14.67h.7v4.13zM29.231 17.471l.724.09a1.765 1.765 0 0 1-.634.984 2.154 2.154 0 0 1-2.622-.206 2.193 2.193 0 0 1-.53-1.568 2.283 2.283 0 0 1 .538-1.618 1.817 1.817 0 0 1 1.392-.576 1.766 1.766 0 0 1 1.354.564 2.241 2.241 0 0 1 .525 1.587q0 .063-.004.187h-3.08a1.588 1.588 0 0 0 .385 1.043 1.146 1.146 0 0 0 .863.361 1.072 1.072 0 0 0 .657-.202 1.343 1.343 0 0 0 .432-.646zm-2.299-1.132h2.307a1.4 1.4 0 0 0-.264-.782 1.073 1.073 0 0 0-.868-.404 1.119 1.119 0 0 0-.813.323 1.282 1.282 0 0 0-.362.863zM30.834 13.912V13.1h.7v.813zm-.887 6.492.132-.595a1.411 1.411 0 0 0 .33.054.369.369 0 0 0 .32-.143 1.437 1.437 0 0 0 .105-.708V14.67h.7v4.356a2.044 2.044 0 0 1-.199 1.062.926.926 0 0 1-.84.389 2.029 2.029 0 0 1-.548-.074z"></path><path fill="#ddd" d="M6.74 22.96h34.52v2.655H6.74z"></path></svg>