<svg xmlns="http://www.w3.org/2000/svg" width="48" height="32" viewBox="0 0 48 32" aria-hidden="true"><g fill="none" fill-rule="evenodd"><rect width="45.333" height="29.333" x="1.333" y="1.333" fill="#FFF" fill-rule="nonzero" rx="2"></rect><path fill="#DDD" fill-rule="nonzero" d="M44 1.333A2.667 2.667 0 0 1 46.667 4v24A2.667 2.667 0 0 1 44 30.667H4A2.667 2.667 0 0 1 1.333 28V4A2.667 2.667 0 0 1 4 1.333h40zM44 0H4a4.012 4.012 0 0 0-4 4v24a4.012 4.012 0 0 0 4 4h40a4.012 4.012 0 0 0 4-4V4a4.012 4.012 0 0 0-4-4z"></path><path fill="#D13239" d="m12.808 16.899 3.224-.004-.117.733-2.698 2.575 2.263-.004-.131.792h-3.332l.139-.818 2.585-2.474h-2.062l.129-.8zM9.283 15.644A.783.783 0 0 0 9 15.467a1.95 1.95 0 0 0-.375-.1 3.508 3.508 0 0 0-.428-.046H5.571l-.943 5.674h.877l.347-2.103 1.701.008c.39.011.777-.065 1.134-.223.297-.183.51-.476.594-.816 0 0 .052-.21.095-.466.047-.282.093-.62.119-.8l.017-.134a1.023 1.023 0 0 0-.104-.647.83.83 0 0 0-.125-.17zm-.678 1.001c0 .01-.077.466-.181 1.006a.452.452 0 0 1-.38.356 2.96 2.96 0 0 1-.624.052H5.997l.312-1.886h1.499c.158.002.315.011.472.03.095 0 .188.03.267.084.04.054.062.119.066.186a.697.697 0 0 1-.008.172zM20.401 15.317l.846-.001-.947 5.676-.847-.001.948-5.674zM24.912 16.899l.811-.002.285 2.88 1.245-2.885 1 .003.295 2.894 1.247-2.892h.84l-1.786 4.091-.997.001-.288-2.865-1.26 2.865-.981.003-.411-4.093z"></path><path fill="#D13239" fill-rule="nonzero" d="M18.841 16.933a3.652 3.652 0 0 0-.994-.088 3.075 3.075 0 0 0-.616.047c-.36.06-.687.239-.934.507-.242.409-.392.866-.44 1.34-.095.445-.143.9-.142 1.356.012.35.225.662.548.8.226.088.466.136.709.141.401.03.805.006 1.2-.068.308-.072.585-.243.788-.485.08-.108.15-.222.208-.343.051-.106.09-.217.117-.332l.055-.22h-.876s-.048.579-.521.632a4.575 4.575 0 0 1-.818.03c-.09 0-.597.017-.556-.4v-.026c-.002-.205.024-.41.078-.608l2.752-.008.117-.68c.13-.777.03-1.365-.675-1.595zm-.184 1.492h-1.885l.075-.298a.75.75 0 0 1 .196-.335.863.863 0 0 1 .456-.133c.304-.033.612-.024.914.025.111.011.208.08.254.183.034.184.03.374-.008.557l-.002.001z"></path><path fill="#D13239" fill-rule="nonzero" d="M16.565 19.825v.019c-.002.033.002-.02 0-.019zm5.191.002v.018c-.003.034.001-.02 0-.018z"></path><path fill="#D13239" fill-rule="nonzero" d="M24.032 16.933a3.65 3.65 0 0 0-.995-.088 3.067 3.067 0 0 0-.616.047 1.64 1.64 0 0 0-.933.507c-.243.409-.393.866-.44 1.34-.096.445-.144.9-.143 1.356.012.35.226.662.548.8.227.088.467.136.71.141.4.029.804.006 1.2-.068.308-.072.584-.243.788-.485.08-.108.15-.222.208-.343.051-.106.09-.217.117-.332l.055-.22h-.878s-.048.579-.521.632a4.584 4.584 0 0 1-.817.03c-.091 0-.598.017-.558-.4v-.027c-.002-.206.024-.41.078-.608l2.752-.008.117-.68c.132-.775.033-1.363-.672-1.594zm-.19 1.49h-1.886l.075-.3a.748.748 0 0 1 .196-.334.861.861 0 0 1 .456-.133c.304-.033.612-.024.914.025a.312.312 0 0 1 .248.182c.036.185.035.376-.004.561v-.001z"></path><path fill="#D13239" d="m31.608 16.899.541 2.992 1.532-2.995.862.008-2.208 4.277a4.51 4.51 0 0 1-.647.971 1.112 1.112 0 0 1-.601.304c-.159.027-.32.027-.479 0l-.205-.036.133-.764c.18.035.366.03.544-.016.203-.08.368-.427.368-.427l.103-.173-.8-4.141h.857z"></path><path fill="#B3B2B1" d="M34.855 17.305h.888l.053-.345s.095-.621.307-.741a.993.993 0 0 1 .302-.098c.255-.036.512-.048.768-.036.37.014.508.016.884.06a.31.31 0 0 1 .28.4l-.073.542a1.307 1.307 0 0 1-.119.4.777.777 0 0 1-.406.266c-.292.096-1.295.35-1.295.35l-.788.226a1.883 1.883 0 0 0-.755.44 1.8 1.8 0 0 0-.416.819c-.037.177-.245 1.404-.245 1.404h4.25l.14-.85h-3.36l.06-.346s.038-.357.183-.473a.745.745 0 0 1 .336-.182c.16-.057.708-.202.708-.202l1.268-.346c.367-.091.701-.284.964-.556.195-.34.323-.712.378-1.1.036-.306.042-.615.017-.922a.988.988 0 0 0-.517-.594 2.757 2.757 0 0 0-1.283-.168 4.373 4.373 0 0 0-1.53.19c-.357.126-.635.41-.754.768a5.145 5.145 0 0 0-.248 1.096l.003-.002zm8 1.579.594-3.568H42.4l-3.285 3.528-.15.893h2.874l-.211 1.254h.881l.208-1.255h.815l.147-.856-.824.004zm-.878 0H40.12l2.267-2.41-.41 2.41zm-30.832-3.101h2.706s.606-.491 1.037-.8c.43-.31 1.213-.811 1.213-.811l-1.528-.715s-1.292.8-1.84 1.178c-.533.348-1.588 1.153-1.588 1.153v-.005zm5.816-2.122-1.254-.845c.855-.47 1.739-.886 2.645-1.247 1.515-.601 2.315-.852 2.315-.852l.254 1.2s-1.453.486-2.286.88a14.52 14.52 0 0 0-1.674.868v-.004zm4.888-2.01-.217-1.227s1.55-.412 2.968-.676c1.419-.264 3.303-.39 3.303-.39l-.623 1.897a13.713 13.713 0 0 0-3.21-.015 18 18 0 0 0-2.22.412v-.001zm6.418-.236 1.048-2.106a29.144 29.144 0 0 1 4.266.267c1.266.185 2.518.452 3.748.8l-5.016 2.615c-.826-.5-1.708-.904-2.628-1.2-.824-.24-1.424-.379-1.424-.379l.006.003zm4.946 2.148 1.103.836h9.067a1.793 1.793 0 0 0-.26-.71 4.579 4.579 0 0 0-.712-.821 7.565 7.565 0 0 0-.835-.632 13.353 13.353 0 0 0-2.076-1.097l-6.287 2.424z"></path><path fill="#D13239" fill-rule="nonzero" d="M11.733 16.895c-.33.015-.65.113-.933.284l.048-.284h-.905l-.722 4.074h.902l.4-2.257a1.153 1.153 0 0 1 1.093-1.024h.467l.14-.792-.49-.001z"></path></g></svg>